<svg width="121" height="102" viewBox="0 0 121 102" fill="none" xmlns="http://www.w3.org/2000/svg">
<path d="M7.94409 58.8751C6.35821 35.0323 21.5412 10.9536 44.6795 4.03659C67.142 -2.69705 92.3342 7.96677 104.475 27.9057C105.151 29.0323 107.517 27.9056 106.737 26.7004C100.336 16.3544 90.7968 8.36341 79.5338 3.91274C68.2708 -0.537939 55.8842 -1.21118 44.2116 1.99292C20.1633 9.19818 3.81041 34.0105 5.44829 59.0062C5.44829 60.4734 8.04811 60.2114 8.04811 58.8751H7.94409Z" fill="#E2D6D6"/>
<path d="M5.70819 60.945C43.0755 60.3379 79.5703 49.4671 111.261 29.5038C111.399 29.4253 111.52 29.3194 111.616 29.1924C111.712 29.0654 111.782 28.92 111.82 28.7651C111.859 28.6102 111.866 28.449 111.841 28.2912C111.816 28.1334 111.76 27.9824 111.675 27.8473C111.591 27.7123 111.479 27.596 111.349 27.5054C111.218 27.4149 111.071 27.352 110.915 27.3207C110.76 27.2894 110.6 27.2903 110.445 27.3233C110.289 27.3563 110.143 27.4206 110.013 27.5125C78.7507 47.2878 42.7172 58.0698 5.8122 58.6917C4.20031 58.6917 4.01833 61.076 5.8122 61.0498L5.70819 60.945Z" fill="#E2D6D6"/>
<path d="M13.4297 90.552C30.1185 89.0468 46.6461 86.0837 62.8262 81.6961C78.9191 77.2682 93.6861 70.4035 109.207 64.5083C110.243 64.0179 111.334 63.6571 112.457 63.4341L117.656 70.7703C117.474 73.6 110.455 75.3555 108.245 76.0105C104.215 77.2944 100.082 78.3686 96.0259 79.5739L42.1836 95.2944C38.3879 96.3949 34.5662 97.7573 30.6925 98.5695C24.5309 99.8534 12.1558 98.9888 14.9376 88.98C15.4056 87.3817 12.8837 86.7267 12.3378 88.325C10.4659 95.0586 15.6655 100.692 22.1391 101.74C31.6804 103.286 43.5616 97.5477 52.5309 94.9276L91.6842 83.5564C97.3778 81.8795 103.123 80.3075 108.791 78.552C112.524 77.8345 115.977 76.0626 118.748 73.4428C122.388 69.2244 121.764 62.2026 115.785 60.8401C112.5 60.5497 109.206 61.2813 106.347 62.9363C99.8996 65.7136 93.53 68.6481 86.9525 71.1372C63.3045 80.0518 38.576 85.7269 13.4297 88.0106C11.7918 88.1416 11.7138 90.6307 13.4297 90.6307V90.552Z" fill="#E2D6D6"/>
<path d="M0.326729 62.4908C-2.61106 76.0629 15.0677 80.9887 21.1253 69.3817L18.7594 69.7747C20.3499 71.8877 22.5104 73.4945 24.9829 74.4028C27.4554 75.3111 30.1352 75.4826 32.7019 74.8967C35.2685 74.3108 37.6134 72.9924 39.4562 71.099C41.2991 69.2057 42.5619 66.8176 43.0937 64.2201L40.7278 64.5869C41.82 66.7945 43.677 68.5223 45.9476 69.4435C48.2182 70.3647 50.7451 70.4154 53.0503 69.5861C55.3555 68.7569 57.2794 67.1051 58.458 64.9432C59.6366 62.7812 59.9883 60.2589 59.4466 57.8533L56.8467 58.5083C57.5355 61.1234 59.1735 63.3824 61.4365 64.8381C63.6994 66.2938 66.4223 66.84 69.0659 66.3686C75.7734 65.1896 79.2312 58.5083 78.9712 52.0629L76.3714 52.1939C76.3523 53.9951 76.7315 55.778 77.4814 57.413C78.2314 59.0481 79.3331 60.4943 80.7069 61.6467C82.0806 62.7991 83.6917 63.6287 85.4232 64.0754C87.1548 64.522 88.9633 64.5744 90.7174 64.2288C92.4716 63.8832 94.1273 63.1482 95.5645 62.0773C97.0016 61.0063 98.1841 59.6262 99.026 58.0373C99.8679 56.4483 100.348 54.6904 100.432 52.8911C100.515 51.0918 100.201 49.2963 99.5098 47.6349C99.0938 46.5083 96.9099 46.7965 96.9099 48.0542C96.9099 56.0979 106.321 59.7398 112.509 55.076C121.556 48.0803 116.591 35.9755 110.741 28.8751C109.909 27.827 107.543 28.875 108.479 30.0541C112 33.7144 114.237 38.4346 114.849 43.4952C115.059 45.214 114.852 46.9585 114.245 48.5788C113.638 50.199 112.65 51.6465 111.365 52.7965C106.815 56.6219 99.5098 54.6044 99.5877 47.9231L96.9879 48.3161C98.3138 52.1414 97.7159 57.8794 93.9202 60.3423C92.4423 61.2585 90.7499 61.7641 89.0154 61.8075C87.2808 61.8509 85.5658 61.4307 84.0445 60.5896C82.5233 59.7486 81.2501 58.5166 80.3544 57.0189C79.4588 55.5212 78.9726 53.8113 78.9452 52.0629C78.9452 50.6219 76.3454 50.8314 76.3454 52.1939C76.5623 54.1059 76.3188 56.0424 75.6354 57.8394C74.9521 59.6364 73.849 61.2409 72.4196 62.5171C71.3359 63.3899 70.0505 63.9719 68.6833 64.2089C67.3161 64.4459 65.9116 64.3301 64.6008 63.8723C63.29 63.4145 62.1155 62.6296 61.187 61.5909C60.2584 60.5521 59.606 59.2934 59.2906 57.9319C58.9266 56.5694 56.5348 57.2245 56.6908 58.5869C57.5487 63.5651 55.7808 65.4253 51.0491 66.5782C46.7854 67.6262 44.9396 67.469 42.7297 63.4602C42.572 63.2824 42.3721 63.1478 42.1488 63.0687C41.9255 62.9896 41.686 62.9687 41.4525 63.0079C41.2191 63.0471 40.9991 63.1452 40.8134 63.293C40.6276 63.4408 40.482 63.6336 40.3899 63.8533C40.028 65.9872 39.0539 67.9675 37.5879 69.5498C36.1218 71.1321 34.2281 72.2471 32.1405 72.7571C30.0528 73.267 27.8627 73.1496 25.8405 72.4194C23.8182 71.6892 22.0525 70.3781 20.7613 68.6481C20.6021 68.4757 20.4034 68.3453 20.1826 68.2682C19.9618 68.1911 19.7257 68.1698 19.4948 68.206C19.264 68.2422 19.0454 68.3348 18.8583 68.4758C18.6712 68.6169 18.5212 68.802 18.4214 69.0149C12.9358 79.4953 0.534673 72.159 2.64053 62.4647C2.9525 61.076 0.352686 61.2594 0.0407077 62.4647L0.326729 62.4908Z" fill="#E2D6D6"/>
<path d="M13.8716 86.9887C12.5717 76.7703 26.6887 82.0629 30.5884 82.5607C33.1544 83.0336 35.8016 82.7422 38.2058 81.7223C39.6468 80.9658 40.9344 79.9438 42.0016 78.7092C42.9116 77.7398 43.5875 76.4822 44.6015 75.5651C47.4047 73.0835 51.0687 71.8212 54.7927 72.0541C57.224 72.3737 59.6832 72.4177 62.1242 72.1852C66.826 71.0497 71.4682 69.6768 76.0332 68.0716C85.2798 65.4367 94.7087 63.5012 104.241 62.2812C105.749 62.0978 106.087 59.9231 104.397 60.1327C93.8385 61.4701 83.4049 63.6695 73.1994 66.7092C70.1057 67.6262 67.0639 68.8576 63.9441 69.6175C60.5472 70.2208 57.0717 70.2208 53.6748 69.6175C51.0361 69.0776 48.2925 69.5744 46.0053 71.0061C42.5735 73.3642 41.1177 76.8489 37.3219 78.8664C31.5763 82.0629 27.0527 78.5782 21.0211 78.5258C15.6135 78.5258 10.6218 81.7747 11.4278 87.6437C11.6097 89.0062 14.0276 88.3511 14.0276 86.9625L13.8716 86.9887Z" fill="#E2D6D6"/>
<path d="M18.0312 47.0847C19.6409 41.1712 22.5067 35.6809 26.4301 30.994C30.3535 26.3071 35.2408 22.5356 40.7536 19.9406C42.2875 19.207 40.9356 17.3205 39.5317 18.0017C33.7295 20.7419 28.5849 24.7157 24.4516 29.6502C20.3182 34.5846 17.2942 40.3626 15.5874 46.5869C15.1454 48.1327 17.6412 48.4734 18.0312 47.0847Z" fill="#E2D6D6"/>
<path d="M50.6331 12.8401L60.1225 13.9667C61.6044 14.1501 62.5403 11.8968 60.8764 11.6872L51.3871 10.5605C49.9052 10.3771 48.9692 12.6305 50.6331 12.8401Z" fill="#E2D6D6"/>
</svg>
