<svg width="97" height="102" viewBox="0 0 97 102" fill="none" xmlns="http://www.w3.org/2000/svg">
<path d="M48.6783 0.877167C27.9378 -2.44926 8.66084 10.6514 2.32664 30.2682C-4.37344 50.9102 3.97308 73.6712 19.9801 87.706C34.9352 100.807 57.0248 106.571 75.5929 97.822C96.7222 87.8427 99.6263 64.9906 95.2587 44.2118C90.5252 21.6559 74.038 0.603768 49.3186 0.0113912C49.1785 -0.0100867 49.0354 -0.00111942 48.8991 0.0376737C48.7627 0.0764669 48.6365 0.144175 48.5289 0.236148C48.4213 0.328122 48.3349 0.442178 48.2757 0.57052C48.2165 0.698862 48.1858 0.838455 48.1858 0.979707C48.1858 1.12096 48.2165 1.26053 48.2757 1.38888C48.3349 1.51722 48.4213 1.63129 48.5289 1.72326C48.6365 1.81524 48.7627 1.88293 48.8991 1.92172C49.0354 1.96052 49.1785 1.96948 49.3186 1.948C69.6704 2.44925 84.8541 18.284 90.9597 36.6249C97.0652 54.9658 98.3687 79.1621 81.5842 91.9665C47.6493 117.872 0.451507 80.3012 2.37235 42.7537C3.56144 19.1497 23.5245 -1.15058 48.1067 2.79101C49.3872 2.99606 50.2562 1.12779 48.7927 0.877167H48.6783Z" fill="#E2D6D6"/>
<path d="M18.3336 15.641C-10.5019 40.7031 20.4145 89.8248 52.4514 93.6069C56.3814 94.2257 60.3959 94.057 64.2597 93.1107C68.1235 92.1644 71.759 90.4595 74.9533 88.0959C78.1475 85.7323 80.8364 82.7575 82.8624 79.3456C84.8883 75.9337 86.2107 72.1533 86.7521 68.2259C88.1074 59.6825 87.3883 50.9399 84.655 42.7303C81.9217 34.5208 77.2539 27.0833 71.0424 21.0408C64.0431 14.5136 55.1511 10.3594 45.6385 9.17263C36.126 7.98586 26.4805 9.8273 18.082 14.4335C16.7786 15.1626 17.9449 16.8941 19.1797 16.1878C37.4734 5.77567 60.958 11.1982 73.9008 27.443C85.3344 41.9106 91.5085 69.6157 76.8278 84.1973C60.2948 100.602 35.6669 88.1388 23.1586 73.6256C9.68981 58.0415 2.07503 32.6149 20.0029 17.0536C21.1234 16.0739 19.4541 14.7752 18.425 15.641H18.3336Z" fill="#E2D6D6"/>
<path d="M19.134 16.6435C18.1584 33.2061 18.0744 49.8089 18.8824 66.3804C18.8824 67.793 21.1691 67.7474 21.1691 66.3804C20.3611 49.8165 20.4451 33.2213 21.4207 16.6663C21.4207 15.2309 19.134 15.2993 19.134 16.6663V16.6435Z" fill="#E2D6D6"/>
<path d="M29.6528 15.4815L31.4365 76.9976C31.4365 78.3874 33.7232 78.2735 33.7232 76.9976C33.0982 56.5074 32.496 36.0021 31.9167 15.4815C31.9167 14.1145 29.63 14.2057 29.63 15.4815H29.6528Z" fill="#E2D6D6"/>
<path d="M40.9721 15.641C44.7223 39.1083 48.4573 62.5755 52.177 86.0427C52.4057 87.4098 54.6009 86.8174 54.4637 85.4504C50.7135 61.9831 46.9786 38.5159 43.2588 15.0486C43.0302 13.6816 40.8349 14.274 40.9721 15.641Z" fill="#E2D6D6"/>
<path d="M57.4822 20.9952L70.9281 87.7971C71.1568 88.9591 73.3749 88.3895 73.2148 87.2047L59.7689 20.4028C59.5174 19.2408 57.3222 19.8104 57.4822 20.9952Z" fill="#E2D6D6"/>
<path d="M69.9448 29.8581L81.2411 72.4181C81.5841 73.7167 83.7794 73.1244 83.5278 71.8257C79.7776 57.639 76.0198 43.4524 72.2544 29.2657C71.9113 27.9898 69.6932 28.5594 69.9676 29.8581H69.9448Z" fill="#E2D6D6"/>
<path d="M12.3196 30.0859C33.9435 31.0445 55.4832 33.3884 76.805 37.1033C78.1084 37.3311 78.9316 35.3717 77.4681 35.1211C55.9722 31.3752 34.2571 29.0084 12.4568 28.0354C12.1839 28.0354 11.9221 28.1434 11.7291 28.3357C11.5361 28.528 11.4277 28.7887 11.4277 29.0606C11.4277 29.3326 11.5361 29.5933 11.7291 29.7856C11.9221 29.9779 12.1839 30.0859 12.4568 30.0859H12.3196Z" fill="#E2D6D6"/>
<path d="M17.9906 19.7877C34.2837 22.0956 50.7209 23.2453 67.1778 23.228C67.481 23.228 67.7719 23.108 67.9863 22.8943C68.2007 22.6807 68.3212 22.391 68.3212 22.0888C68.3212 21.7867 68.2007 21.4969 67.9863 21.2833C67.7719 21.0697 67.481 20.9496 67.1778 20.9496C50.9209 20.9852 34.6822 19.866 18.5851 17.6004C17.2131 17.4182 16.4813 19.4687 17.9448 19.6737L17.9906 19.7877Z" fill="#E2D6D6"/>
<path d="M9.50689 44.1207C33.1935 50.4982 57.7445 53.0974 82.2473 51.8216C83.6879 51.8216 83.7794 49.5432 82.2473 49.5432C57.9725 50.8393 33.645 48.2939 10.1701 42.0018C9.88805 41.9202 9.58506 41.9536 9.32775 42.0946C9.07045 42.2356 8.87989 42.4727 8.79802 42.7536C8.71614 43.0346 8.74966 43.3365 8.89118 43.5929C9.0327 43.8492 9.27066 44.0391 9.55267 44.1207H9.50689Z" fill="#E2D6D6"/>
<path d="M15.7268 60.9123L75.5015 74.4002C76.805 74.6964 77.6281 72.8282 76.1875 72.4864L16.4128 58.9301C15.1323 58.6339 14.2861 60.525 15.7268 60.8667V60.9123Z" fill="#E2D6D6"/>
<path d="M24.0732 75.9268C40.4254 80.2237 57.083 83.2704 73.9008 85.0403C75.2499 85.1998 76.0274 83.172 74.5639 83.0353C57.7383 81.2674 41.073 78.2207 24.7135 73.9218C23.3872 73.5573 22.6326 75.5622 24.0732 75.9268Z" fill="#E2D6D6"/>
</svg>
