<svg width="89" height="135" viewBox="0 0 89 135" fill="none" xmlns="http://www.w3.org/2000/svg">
<path d="M2.95737 55.9643C15.2723 50.466 27.8699 45.6231 40.6972 41.4562C46.7355 39.4831 52.832 37.6841 58.9865 36.0012L68.2182 33.6508L72.1954 32.6933C77.4596 30.7589 79.3369 33.9313 77.8273 42.2106C74.4017 46.1859 65.7506 49.0875 61.1347 51.1477C54.9849 53.8746 48.6959 56.2765 42.2939 58.3437C36.4877 60.2007 30.6816 61.8546 24.8755 63.3925C22.466 64.0599 20.0274 64.7563 17.5888 65.2786C13.5245 66.12 -4.30027 65.7138 4.46698 55.0939C5.65723 53.7011 3.04449 52.7145 2.02842 53.9332C1.19998 54.8887 0.600869 56.0207 0.276907 57.2428C-0.0470544 58.465 -0.08734 59.745 0.159121 60.9851C0.405582 62.2252 0.932309 63.3926 1.69902 64.3982C2.46574 65.4038 3.45218 66.221 4.58308 66.7874C10.8827 70.5596 19.0984 67.5128 25.5142 65.8008C35.5624 63.2219 45.4499 60.0537 55.1254 56.3126C63.312 53.0918 72.8341 49.5518 79.7143 43.8936C83.1109 41.1371 85.9269 35.9721 82.6174 31.9969C78.3789 26.89 68.3924 31.0104 63.5442 32.229C42.2736 37.6936 21.509 44.9644 1.47683 53.9622C-0.235976 54.7456 1.27362 56.8639 2.84127 56.0804L2.95737 55.9643Z" fill="#E2D6D6"/>
<path d="M15.5276 76.1307C25.512 91.7171 33.7667 108.345 40.1456 125.719C43.0486 132.974 42.41 133.873 50.3934 134.685C56.454 135.382 62.592 134.919 68.4795 133.322C73.7848 131.84 78.6739 129.148 82.7625 125.458C85.3646 123.491 87.4883 120.962 88.9751 118.059C89.1001 115.864 88.7536 113.668 87.959 111.618C83.8076 92.3217 80.6433 72.8518 78.3209 53.2368C78.1467 51.6699 75.4178 52.3953 75.4178 53.9912C77.2177 69.4666 79.5789 84.7775 82.5013 99.924C83.8657 106.975 88.0171 115.912 82.6754 121.744C77.9617 126.896 71.7283 130.413 64.8797 131.784C59.5961 132.857 48.4483 134.511 44.7324 129.811C43.0958 126.825 41.8378 123.648 40.9875 120.351C39.7101 117.218 38.4038 114.055 37.0683 110.95C31.8733 98.3486 25.4867 86.2714 17.9953 74.8829C17.1243 73.6062 14.5116 74.8829 15.4405 76.2467L15.5276 76.1307Z" fill="#E2D6D6"/>
<path d="M34.0492 89.1589C45.0394 86.2423 55.361 81.227 64.4442 74.3896L61.9766 73.7513C64.2023 80.2896 66.4183 86.8376 68.6246 93.3953C69.1762 95.0202 71.9921 94.2948 71.5276 92.6409L64.8796 73.0839C64.7938 72.8546 64.6523 72.6501 64.468 72.4889C64.2836 72.3276 64.0621 72.2146 63.8233 72.16C63.5845 72.1053 63.3359 72.1108 63.0997 72.1758C62.8636 72.2409 62.6472 72.3634 62.4701 72.5326C53.7869 79.0364 43.9299 83.8048 33.4395 86.5765C33.2636 86.6144 33.0971 86.6874 32.9502 86.7912C32.8032 86.8949 32.6788 87.0273 32.5843 87.1804C32.4898 87.3335 32.4272 87.504 32.4004 87.6819C32.3735 87.8597 32.3828 88.0411 32.4278 88.2152C32.4729 88.3894 32.5526 88.5526 32.6623 88.6952C32.7721 88.8377 32.9095 88.9566 33.0663 89.0448C33.2232 89.1329 33.3962 89.1884 33.5751 89.2081C33.7539 89.2277 33.9349 89.211 34.1072 89.1589H34.0492Z" fill="#E2D6D6"/>
<path d="M32.4235 89.1299C36.3311 94.257 39.2814 100.047 41.1327 106.221C41.452 107.265 42.7874 107.236 43.5131 106.656C51.4322 100.459 60.8439 96.4564 70.8019 95.0492C72.4857 94.8171 72.805 92.3217 70.9471 92.5829C60.2192 94.06 50.0786 98.3666 41.5681 105.06L43.9486 105.524C42.0506 99.1429 39.0329 93.1497 35.0362 87.8242C34.1072 86.5765 31.4945 87.8242 32.5106 89.188L32.4235 89.1299Z" fill="#E2D6D6"/>
<path d="M0.780074 64.8723C1.33166 87.3889 35.7619 70.9657 45.6324 67.5128C57.7381 63.2764 91.7039 56.6027 83.3721 36.5234C82.7625 35.0726 79.9756 35.827 80.4691 37.2778C87.6977 54.6876 58.8993 60.3167 47.5774 64.263C38.0263 67.5998 4.03151 83.965 3.59605 64.7562C3.59605 63.1023 0.692985 63.3344 0.692985 64.7562L0.780074 64.8723Z" fill="#E2D6D6"/>
<path d="M43.9776 49.5227C43.0777 40.0924 42.0326 30.6331 40.8133 21.2318C40.465 18.5333 37.678 9.62536 38.8682 7.30406C40.6972 3.90915 50.6547 3.61896 54.1384 2.92257C55.9673 2.54536 55.2125 -0.26922 53.3835 0.0209427L36.6909 3.41584C36.3252 3.5243 36.0142 3.76714 35.8203 4.09551C35.6264 4.42388 35.5641 4.81341 35.6458 5.18584C37.8522 19.8874 39.6618 34.6374 41.0746 49.4356C41.2488 51.2637 44.1518 51.2927 43.9776 49.4356V49.5227Z" fill="#E2D6D6"/>
<path d="M36.5458 51.6119C38.717 52.7491 41.2386 53.0223 43.6032 52.3763C45.9677 51.7302 47.9997 50.213 49.2902 48.1299C50.2773 46.5631 47.6935 45.6055 46.8516 46.9693C46.0002 48.4257 44.6156 49.4943 42.9904 49.9491C41.3652 50.4039 39.6268 50.2094 38.1424 49.4067C36.6909 48.6813 34.9491 50.7994 36.6038 51.6119H36.5458Z" fill="#E2D6D6"/>
</svg>
