<svg width="68" height="50" viewBox="0 0 68 50" fill="none" xmlns="http://www.w3.org/2000/svg">
<path d="M67.1854 29.82C67.0908 29.6623 66.9226 29.5783 66.744 29.5783H41.2486C41.0595 29.5783 40.8808 29.6834 40.7862 29.862L37.2762 36.693C36.3198 27.7707 32.4314 22.7998 25.7055 21.9065C25.4323 21.8645 25.1906 22.0432 25.138 22.3059C24.8333 23.609 24.2027 24.6284 23.3935 25.4166C22.6789 24.681 22.7314 23.0836 22.847 22.3059C24.3288 21.0343 25.2746 19.1531 25.2746 17.0618V11.6811C28.3118 9.06429 28.2908 4.3877 25.1696 0.205031C25.0855 0.0894295 24.9594 0.0263747 24.8228 0.00535625C24.6861 -0.0156622 24.5495 0.0263741 24.4339 0.110448L22.9311 1.25595C22.5843 1.51868 22.1324 1.64479 21.67 1.61327C16.5415 1.21391 12.6216 2.51706 10.0153 5.49116C8.80672 6.87838 8.23922 8.75953 8.45991 10.6722L8.81723 13.6989C8.81723 13.7409 8.82773 13.7724 8.83824 13.8039V13.8145C9.25861 14.981 10.1414 16.0109 11.434 16.8937L11.4445 17.1774C11.4971 19.8362 13.0735 22.1272 15.3224 23.2412C15.5746 23.9874 15.9215 25.5848 15.4906 26.7408C13.7776 26.0472 12.2537 24.681 11.7703 22.3164C11.7178 22.0747 11.5076 21.9065 11.2659 21.9065C5.06544 21.8855 0 26.951 0 33.1724V37.4497C0 37.7334 0.231203 37.9646 0.514951 37.9646H1.45027V42.6307C1.45027 45.1844 3.53109 47.2548 6.07432 47.2548H13.2836C13.5254 48.5264 14.6393 49.4827 15.974 49.4827H57.2962C57.4959 49.4827 57.6745 49.3671 57.7586 49.199L67.1959 30.3139C67.28 30.1563 67.28 29.9671 67.1854 29.82ZM36.3514 37.9751C36.3619 38.1223 36.3829 38.2694 36.3829 38.427L33.3983 44.2386H29.7831V37.9751H36.3514ZM9.50032 10.5251C9.31116 8.90666 9.78407 7.30926 10.8035 6.14274C12.9053 3.74664 15.9635 2.53808 19.9255 2.53808C20.4719 2.53808 21.0289 2.55909 21.5964 2.60113C22.3216 2.65368 23.0152 2.454 23.5616 2.03363L24.6336 1.21391C27.0402 4.72399 27.0927 8.48629 24.7807 10.6827C22.3846 8.24458 20.2933 7.19366 18.3701 7.4774C16.7727 7.71912 15.396 8.90666 14.2505 11.0295C13.2941 10.6302 12.3798 10.5881 11.5181 10.8824C10.7299 11.1556 10.1204 11.6706 9.68949 12.1645L9.50032 10.5251ZM12.4954 17.1459L12.4849 16.5889C12.4849 16.4207 12.3904 16.2526 12.2432 16.158C11.0767 15.4119 10.3095 14.5921 9.91018 13.6568C10.1414 13.2364 10.793 12.2381 11.8544 11.8703C12.5795 11.618 13.3887 11.7231 14.2505 12.175C14.3766 12.2381 14.5132 12.2486 14.6498 12.2065C14.7865 12.1645 14.8915 12.0699 14.9546 11.9438C15.9845 9.86299 17.1826 8.70698 18.5277 8.50731C20.0936 8.2761 22.0273 9.31652 24.2342 11.6075V17.0303C24.2342 20.2671 21.5964 22.9049 18.3596 22.9049C15.1858 22.9154 12.5585 20.3302 12.4954 17.1459ZM16.5415 23.6931C17.1195 23.8508 17.7395 23.9453 18.3701 23.9453C19.5997 23.9453 20.7452 23.6196 21.7436 23.0521C21.7225 23.9664 21.8486 25.2275 22.5738 26.0472C21.2917 26.9194 19.7363 27.3293 18.265 27.2873C17.6975 27.2768 17.0985 27.1927 16.4995 27.0456C16.9093 25.9106 16.7412 24.5864 16.5415 23.6931ZM1.0299 33.1724C1.0299 27.6551 5.40173 23.1466 10.8665 22.9365C11.5286 25.4797 13.3782 27.0561 15.459 27.8022C15.4696 27.8127 15.4801 27.8232 15.4906 27.8337C15.5536 27.8758 15.6272 27.8863 15.7008 27.8968C16.531 28.17 17.3927 28.3172 18.2335 28.3382C20.0936 28.3592 22.0693 27.7812 23.6142 26.5411C23.6457 26.5201 23.6667 26.4991 23.6983 26.4781C24.7282 25.6268 25.5584 24.4918 25.9998 22.9995C32.0426 23.9979 35.4055 28.5799 36.2463 36.9452H28.2698V32.174C28.2698 31.8903 28.0386 31.6591 27.7548 31.6591C27.4711 31.6591 27.2399 31.8903 27.2399 32.174V37.4602C27.2399 37.7439 27.4711 37.9751 27.7548 37.9751H28.7532V44.2386H21.1025V43.8288C21.1025 41.8951 19.5366 40.3292 17.6029 40.3292H8.37584V37.9751H9.14301C9.42676 37.9751 9.65796 37.7439 9.65796 37.4602V31.9218C9.65796 31.6381 9.42676 31.4069 9.14301 31.4069C8.85926 31.4069 8.62806 31.6381 8.62806 31.9218V36.9452H1.0299V33.1724ZM2.48017 42.6307V37.9751H7.33543V40.8547C7.33543 41.1384 7.56663 41.3696 7.85038 41.3696H17.5924C18.9481 41.3696 20.0516 42.4731 20.0516 43.8288V44.2386H13.7355C13.4518 44.2386 13.2206 44.4698 13.2206 44.7536V46.2249H6.07432C4.09859 46.2249 2.48017 44.6169 2.48017 42.6307ZM15.974 48.4528C15.0282 48.4528 14.261 47.6856 14.261 46.7398V45.2685H32.8623L31.2334 48.4528H15.974ZM56.9809 48.4528H32.3999L34.1759 44.9953L41.5639 30.6082H65.9032L56.9809 48.4528Z" fill="#CB3A1A"/>
<path d="M33.8604 11.9753C33.8604 18.1863 38.9153 23.2412 45.1262 23.2412C45.5046 23.2412 45.8724 23.2202 46.2297 23.1887H46.2402C46.2402 23.1887 46.2402 23.1887 46.2507 23.1887C51.9362 22.6212 56.3921 17.808 56.3921 11.9753C56.3921 10.5251 56.1083 9.13786 55.6039 7.86624C55.5934 7.83472 55.5829 7.80319 55.5724 7.77166C55.2046 6.84685 54.7106 5.9956 54.1221 5.21792C54.1011 5.16538 54.059 5.12334 54.0275 5.0813C51.9677 2.42247 48.7519 0.709473 45.1367 0.709473C43.9702 0.709473 42.8352 0.888129 41.7738 1.22442C41.7633 1.22442 41.7633 1.22442 41.7528 1.22442C41.7528 1.22442 41.7528 1.22442 41.7423 1.23493C39.157 2.05465 36.9711 3.78867 35.5628 6.05866C35.5208 6.1007 35.4998 6.15324 35.4788 6.20579C34.4594 7.89777 33.8604 9.86299 33.8604 11.9753ZM34.8903 11.9753C34.8903 10.1047 35.4052 8.36018 36.288 6.84685L36.5717 6.7943C36.8555 6.74176 37.2758 6.87838 37.4335 7.09907C37.6121 7.34078 37.6962 7.60351 37.6962 7.9293C37.6962 8.1605 37.6226 8.41272 37.4755 8.728C37.2128 9.27448 37.3284 9.91554 37.7698 10.4095C38.2427 10.9454 38.9468 11.1451 39.5143 10.9454L40.0187 10.8088C40.4496 10.6932 40.912 10.8509 41.1432 11.1872C41.7738 12.0909 41.8368 13.5307 41.2799 14.4765C41.0171 14.9179 40.5232 15.1912 39.9872 15.1912H39.2095C38.5475 15.1912 37.9694 15.6115 37.7488 16.2316L37.5701 16.757C37.3599 17.3455 37.5386 17.9971 38.0115 18.428C38.579 18.9429 38.8417 19.4789 38.8417 20.0569C36.4456 18.1548 34.8903 15.2437 34.8903 11.9753ZM46.8813 22.0537C46.9653 21.6859 47.0809 21.3391 47.2596 21.0028C47.764 20.0464 47.9637 18.9745 47.8481 17.9025L47.8061 17.5452C47.7956 17.4086 47.7851 17.272 47.7851 17.1249C47.7851 15.3278 48.2685 14.4765 49.4455 14.1928C49.8133 14.1087 50.2232 14.0877 50.6856 14.1508C52.1359 14.3609 53.0607 14.1823 53.6072 13.6148C54.0275 13.1734 54.1536 12.5428 53.996 11.7126C53.6702 10.2729 54.3428 9.32702 54.8683 8.8436C55.1835 9.83146 55.3622 10.8824 55.3622 11.9753C55.3622 17.0198 51.684 21.2129 46.8813 22.0537ZM52.6929 5.11283L50.8537 5.47014C50.2547 5.58574 49.7082 5.91153 49.3089 6.39495C49.0567 6.71023 48.7099 6.90991 48.3525 6.96245C47.722 7.04653 47.0704 7.00449 46.3873 6.84685C46.009 6.76278 45.6727 6.50005 45.452 6.14273L44.9476 5.32301C44.853 5.15487 44.7794 4.99723 44.7584 4.82908C44.6323 4.10395 44.1699 3.47339 43.4658 3.06354C43.1925 2.9059 42.9613 2.64317 42.8142 2.31738L42.6881 2.04414C43.4763 1.85498 44.2855 1.73937 45.1262 1.73937C48.1213 1.74988 50.8222 3.05303 52.6929 5.11283ZM41.6897 2.35942L41.8684 2.75877C42.1101 3.28423 42.4779 3.69409 42.9508 3.96733C43.2661 4.14598 43.6549 4.47177 43.7495 5.00774C43.8021 5.302 43.9177 5.58574 44.0753 5.85898L44.5797 6.6787C44.9476 7.27773 45.5256 7.7086 46.1666 7.85573C46.6921 7.97133 47.207 8.03439 47.701 8.03439C47.9637 8.03439 48.2264 8.01337 48.4892 7.98184C49.1092 7.90828 49.6767 7.57199 50.1076 7.04653C50.3493 6.75227 50.6751 6.55259 51.0429 6.48954L53.4285 6.02713C53.8278 6.58412 54.1747 7.18314 54.4584 7.8137C53.7753 8.36018 52.4616 9.71586 52.9766 11.9228C53.0607 12.3852 53.0186 12.7215 52.8505 12.9002C52.6508 13.0998 52.1464 13.31 50.8222 13.1208C50.2232 13.0473 49.6977 13.0578 49.2038 13.1839C47.0074 13.7094 46.7552 15.6851 46.7552 17.1249C46.7552 17.293 46.7657 17.4612 46.7867 17.6713L46.8287 18.0076C46.9233 18.8694 46.7551 19.7416 46.3558 20.5088C46.0721 21.0343 45.9144 21.5913 45.8198 22.1798C45.5886 22.1903 45.3679 22.2113 45.1367 22.2113C43.182 22.2113 41.3639 21.6543 39.8086 20.698C40.0713 19.584 39.693 18.5436 38.7156 17.6398C38.5475 17.4927 38.4844 17.272 38.558 17.0723L38.7471 16.5468C38.8207 16.3367 39.0099 16.2 39.2306 16.2H40.0082C40.912 16.2 41.7528 15.7271 42.1942 14.981C42.9613 13.6673 42.8878 11.8177 42.005 10.5671C41.5216 9.8735 40.6178 9.55823 39.756 9.78943L39.22 9.93656C38.9783 10.0206 38.7156 9.8735 38.558 9.69485C38.4949 9.63179 38.3057 9.39008 38.4319 9.14837C38.6525 8.68596 38.7576 8.29712 38.7576 7.89777C38.7576 7.35129 38.6 6.85736 38.2847 6.4475C38.0115 6.07968 37.5281 5.83797 37.0341 5.7644C38.1901 4.23006 39.8086 3.03201 41.6897 2.35942Z" fill="#CB3A1A"/>
<path d="M44.0337 40.7075L44.5382 40.7706C44.5907 41.1069 44.6853 41.4432 44.8114 41.7584L44.4226 42.0632C44.3175 42.1473 44.2229 42.3154 44.2019 42.4521C44.1808 42.5887 44.2334 42.7673 44.3175 42.8724L45.2738 44.0915C45.3579 44.2071 45.5155 44.2912 45.6626 44.3122C45.7993 44.3227 45.9779 44.2807 46.083 44.1966L46.4824 43.8813C46.7661 44.081 47.0604 44.2491 47.3756 44.3857L47.3231 44.8797C47.3021 45.0163 47.3546 45.195 47.4387 45.3106C47.5228 45.4156 47.6909 45.5102 47.8275 45.5312L49.3724 45.7099C49.3934 45.7099 49.4039 45.7099 49.4249 45.7099C49.551 45.7099 49.7087 45.6574 49.8033 45.5838C49.9084 45.4997 49.9924 45.3421 50.0135 45.2055L50.0765 44.701C50.4128 44.6485 50.7491 44.5539 51.0644 44.4278L51.3797 44.8271C51.5583 45.0478 51.9577 45.1004 52.1784 44.9217L53.3974 43.9654C53.5025 43.8813 53.5971 43.7132 53.6181 43.5765C53.6391 43.4399 53.5866 43.2613 53.5025 43.1562L53.1872 42.7568C53.3869 42.4836 53.5551 42.1788 53.6917 41.8635L54.1961 41.9266C54.3327 41.9476 54.5114 41.8951 54.6165 41.8005C54.7216 41.7164 54.8057 41.5588 54.8267 41.4221L55.0053 39.8878C55.0263 39.7512 54.9738 39.5725 54.8897 39.4569C54.8057 39.3518 54.648 39.2572 54.5009 39.2362L53.9964 39.1732C53.9439 38.8369 53.8493 38.5111 53.7232 38.1853L54.1226 37.87C54.2276 37.786 54.3222 37.6178 54.3327 37.4812C54.3433 37.3446 54.3012 37.1659 54.2171 37.0608L53.2503 35.8312C53.0716 35.6106 52.6723 35.5685 52.4516 35.7367L52.0522 36.0519C51.7685 35.8523 51.4742 35.6841 51.159 35.5475L51.222 35.0536C51.243 34.9169 51.1905 34.7383 51.1064 34.6332C51.0223 34.5281 50.8647 34.4335 50.7176 34.4125L49.1727 34.2338C49.0361 34.2128 48.8574 34.2654 48.7523 34.36C48.6473 34.444 48.5632 34.6017 48.5422 34.7383L48.4581 35.2427C48.1218 35.2953 47.7855 35.3899 47.4702 35.516L47.1655 35.1271C47.0814 35.0115 46.9237 34.9275 46.7766 34.9064C46.64 34.8959 46.4613 34.938 46.3563 35.022L45.1267 35.9889C44.906 36.1675 44.8639 36.5669 45.0426 36.7876L45.3579 37.1869C45.1582 37.4707 44.9901 37.7649 44.8534 38.0802L44.349 38.0172C44.0863 37.9856 43.75 38.2379 43.7184 38.5216L43.5398 40.077C43.5083 40.3607 43.7605 40.676 44.0337 40.7075ZM44.6853 39.1101L45.0846 39.1627C45.3158 39.1942 45.6206 39.005 45.6942 38.7738C45.8413 38.3324 46.0725 37.9226 46.3668 37.5653C46.5349 37.3761 46.5349 37.0293 46.3878 36.8401L46.1356 36.5249L46.6295 36.136L46.8712 36.4408C47.0183 36.6405 47.3546 36.7245 47.5858 36.6089C48.0062 36.3987 48.4581 36.2726 48.9205 36.2306C49.1622 36.2096 49.4144 35.9679 49.446 35.7262L49.4985 35.3268L50.1185 35.4004L50.066 35.7997C50.0345 36.0414 50.2236 36.3357 50.4548 36.4093C50.8962 36.5564 51.3061 36.7876 51.6634 37.0924C51.8526 37.25 52.1889 37.2605 52.3885 37.1029L52.7038 36.8506L53.1032 37.3446L52.7879 37.5968C52.5987 37.7544 52.5252 38.0802 52.6302 38.3009C52.8404 38.7213 52.9665 39.1732 53.0086 39.6356C53.0296 39.8773 53.2608 40.1295 53.513 40.161L53.9124 40.2136L53.8388 40.8336L53.4395 40.7811C53.1872 40.7496 52.914 40.9387 52.8299 41.1699C52.6828 41.6218 52.4516 42.0212 52.1468 42.389C51.9892 42.5782 51.9892 42.9145 52.1363 43.1036L52.3885 43.4189L51.8946 43.8077L51.6424 43.482C51.4847 43.2928 51.159 43.2192 50.9488 43.3348C50.5284 43.545 50.0765 43.6711 49.6141 43.7132C49.3724 43.7342 49.1202 43.9654 49.0886 44.2176L49.0361 44.6169L48.4161 44.5434L48.4581 44.144C48.4896 43.9023 48.3005 43.6081 48.0693 43.5345C47.6279 43.3874 47.218 43.1562 46.8502 42.8514C46.661 42.6938 46.3247 42.6938 46.1356 42.8409L45.8203 43.0931L45.4314 42.5992L45.7362 42.3575C45.9359 42.2103 46.0094 41.874 45.9044 41.6533C45.6942 41.233 45.5681 40.7811 45.526 40.3187C45.505 40.077 45.2738 39.8247 45.0216 39.7932L44.6222 39.7407L44.6853 39.1101Z" fill="#CB3A1A"/>
<path d="M48.9419 42.6833C49.047 42.6938 49.1626 42.7043 49.2677 42.7043C50.6339 42.7043 51.8214 41.6744 51.9791 40.2871C52.0632 39.562 51.8635 38.8474 51.4116 38.2694C50.9597 37.6914 50.3081 37.3341 49.583 37.25C48.8578 37.1659 48.1432 37.3656 47.5652 37.8175C46.9872 38.2694 46.6299 38.921 46.5458 39.6461C46.3672 41.1384 47.4391 42.5046 48.9419 42.6833ZM47.5757 39.7617C47.6283 39.3098 47.8595 38.9104 48.2168 38.6267C48.5216 38.385 48.8894 38.2589 49.2677 38.2589C49.3308 38.2589 49.4043 38.2589 49.4674 38.2694C50.4027 38.385 51.0648 39.2257 50.9597 40.161C50.8441 41.0964 50.0033 41.7584 49.068 41.6533C48.1327 41.5483 47.4601 40.697 47.5757 39.7617Z" fill="#CB3A1A"/>
</svg>
