<svg width="68" height="63" viewBox="0 0 68 63" fill="none" xmlns="http://www.w3.org/2000/svg">
<path d="M60.9156 9.48735L65.4979 12.0891C65.887 12.3111 66.0145 12.7943 65.7608 13.1979L64.8112 14.8162L67.6043 16.4017C67.9948 16.6225 68.1223 17.107 67.8687 17.5106L60.8386 29.4821C60.318 30.3729 58.9433 29.5931 59.4639 28.705L66.1208 17.3643L64.0169 16.1693L52.5401 35.7212V52.6115C52.5401 54.7887 50.7232 56.5741 48.5091 56.5741H46.0055C46.0055 58.605 46.3003 60.4323 44.8168 61.8389C44.0863 62.5559 43.0795 63 41.9758 63H4.0297C1.81562 63 0 61.2146 0 59.0374V10.3885C0 8.2074 1.81562 6.42591 4.0297 6.42591H6.53464C6.53464 4.42238 6.23713 2.48939 7.76587 1.11931C8.49238 0.427088 9.48055 0 10.5643 0H48.5091C49.6155 0 50.6236 0.445373 51.3554 1.16502L51.3567 1.16372C52.0859 1.88075 52.5401 2.87207 52.5401 3.96264V22.1916L59.8292 9.776C60.051 9.39723 60.5491 9.27316 60.9143 9.48997L60.9156 9.48735ZM34.7678 6.52909H47.0229C47.4625 6.52909 47.8198 6.87911 47.8198 7.31273V19.3639C47.8198 19.7962 47.4625 20.1476 47.0229 20.1476H34.7678C34.3281 20.1476 33.9709 19.7962 33.9709 19.3639V7.31273C33.9709 6.87911 34.3281 6.52909 34.7678 6.52909ZM46.226 8.09638H35.5647V18.5803H46.226V8.09638ZM25.2607 1.56729V9.1543C25.2607 9.80473 24.4717 10.2161 23.9125 9.71984L20.7276 7.07764L17.6502 9.74204C17.1348 10.1887 16.3273 9.82302 16.3273 9.1543V1.56729H10.5643C9.22022 1.56729 8.12846 2.64873 8.12846 3.96264V52.6115C8.12846 53.928 9.22554 55.0068 10.5643 55.0068H48.5091C49.8519 55.0068 50.9463 53.9319 50.9463 52.6115V38.4353L46.1356 46.6283L45.8992 46.8738L42.3835 49.3685H47.0229C48.0721 49.3685 48.0721 50.9358 47.0229 50.9358H12.0506C11.0013 50.9358 11.0013 49.3685 12.0506 49.3685H39.2344C39.3513 48.5574 39.9862 43.5512 40.2 43.2051L48.0708 29.7982L50.9463 24.9056V3.96264C50.9463 3.30438 50.6714 2.70619 50.2291 2.27127L50.2304 2.26996C49.7895 1.83635 49.1825 1.56729 48.5091 1.56729H25.2607ZM17.9211 1.56729V7.42114L20.1897 5.4568V5.4581C20.4819 5.20472 20.9241 5.19427 21.2296 5.44765L23.6668 7.47077V1.56729H17.9211ZM12.0506 13.9894C11.0013 13.9894 11.0013 12.4221 12.0506 12.4221H29.5374C30.5853 12.4221 30.5853 13.9894 29.5374 13.9894H12.0506ZM12.1621 20.1476C11.1129 20.1476 11.1129 18.5803 12.1621 18.5803H29.5374C30.5867 18.5803 30.5867 20.1476 29.5374 20.1476H12.1621ZM12.0506 26.3044C11.0013 26.3044 11.0013 24.7371 12.0506 24.7371H47.0229C48.0721 24.7371 48.0721 26.3044 47.0229 26.3044H12.0506ZM12.0506 32.4626C11.0013 32.4626 11.0013 30.8953 12.0506 30.8953H44.2696C45.3188 30.8953 45.3188 32.4626 44.2696 32.4626H12.0506ZM12.0506 38.6207C11.0013 38.6207 11.0013 37.0534 12.0506 37.0534H40.8176C41.8669 37.0534 41.8669 38.6207 40.8176 38.6207H12.0506ZM12.0506 44.7789C11.0013 44.7789 11.0013 43.2116 12.0506 43.2116H36.8782C37.9275 43.2116 37.9275 44.7789 36.8782 44.7789H12.0506ZM51.0247 35.1753L52.2559 33.0777L49.0497 31.2584L41.9572 43.3383L45.1634 45.1577L51.0247 35.1753ZM44.4117 56.5741H10.5643C8.34628 56.5741 6.53464 54.7926 6.53464 52.6115V7.9932C4.81864 7.9932 3.30053 7.72284 2.3097 8.69718C1.86875 9.13079 1.59382 9.73028 1.59382 10.3885V59.0374C1.59382 60.3578 2.68691 61.4327 4.0297 61.4327H41.9758C43.3173 61.4327 44.4117 60.3578 44.4117 59.0374V56.5741ZM52.4671 25.4346L49.8439 29.904L53.0515 31.7246L64.0143 13.0529L60.8067 11.231L52.4671 25.4346ZM43.9933 46.2992L41.4923 44.8795L40.9757 48.4424L43.9933 46.2992Z" fill="#CB3A1A"/>
</svg>
